<svg className="chickenSvg" viewBox="0 0 133.929 288.149" width="190" height="400" xmlns="http://www.w3.org/2000/svg">
    <!-- Existing chicken parts -->
    <path fill="#fff" d="M 0 286.924 L 0.812 109.147 C 0.798 28.619 130.851 30.311 131.616 109.959 L 131.616 286.662 L 0 286.924 Z"/>
    <circle style="" cx="24.351" cy="124.21" r="14.556"/>
    <circle style="" cx="106.737" cy="124.427" r="14.961"/>
    <path fill="#ff0000" d="M 60.877 196.45 C 60.493 221.327 47.538 235.105 51.136 250.834 C 50.743 267.912 84.349 272.573 87.662 250.834 C 89.427 229.089 74.714 221.173 76.299 195.639 C 72.95 188.436 64.402 188.859 60.877 196.45 Z"/>
    <path fill="#ffc400" d="M 21.104 178.97 C 37.165 203.276 69.805 200.885 69.805 200.885 C 69.805 200.885 101.417 202.31 112.825 178.97 L 21.104 178.97 Z"/>
    <path fill="#ffee00" d="M 13.798 184.275 C 29.839 158.082 66.558 157.489 66.558 157.489 C 66.558 157.489 98.771 156.166 120.942 184.275 C 65.685 197.497 13.798 184.275 13.798 184.275 Z"/>
    <path fill="#ff0000" d="M 73.864 81.635 C 73.052 88.105 57.917 88.984 57.917 81.635 L 48.701 20.212 C 44.898 -7.527 83.295 -5.936 82.947 20.212 L 73.864 81.635 Z"/>
</svg>